<svg width="67" height="83" viewBox="0 0 67 83" fill="none" xmlns="http://www.w3.org/2000/svg">
<path d="M61.5648 57.7875C56.7379 73.6667 40.2345 81.9677 24.3439 77.1412C8.45326 72.3147 0.143743 55.8208 4.97066 39.9417C9.79757 24.0626 26.3009 15.7616 42.1916 20.5881C58.0822 25.4146 66.3211 42.4495 61.5648 57.7875Z" fill="white"/>
<path d="M23.1723 8.50082L29.8079 15.0362C31.0594 16.2688 30.9889 18.3081 29.6553 19.4513L23.1798 25.0022C20.9031 26.9538 17.4877 24.7263 18.3558 21.856L19.4801 18.1387C19.6406 17.6078 19.6509 17.0428 19.5097 16.5065L18.166 11.4019C17.3895 8.45216 20.999 6.36045 23.1723 8.50082Z" fill="#FF4234"/>
<path d="M41.9767 24.8957L35.341 18.3603C34.0895 17.1277 34.16 15.0884 35.4937 13.9452L41.9691 8.39432C44.2458 6.4427 47.6612 8.6702 46.7931 11.5405L45.6689 15.2578C45.5083 15.7887 45.4981 16.3536 45.6392 16.89L46.983 21.9946C47.7594 24.9443 44.1499 27.036 41.9767 24.8957Z" fill="#FF4234"/>
<circle cx="32.5745" cy="17.1392" r="3.9673" fill="#FF4234"/>
</svg>
