<svg width="94" height="91" viewBox="0 0 94 91" fill="none" xmlns="http://www.w3.org/2000/svg">
<path d="M39.9048 5.21639C42.1265 -1.73881 51.8735 -1.73879 54.0952 5.2164L60.0388 23.8223C61.0338 26.9372 63.9085 29.0458 67.1503 29.0387L86.5142 28.996C93.7527 28.98 96.7647 38.3388 90.8993 42.6213L75.2087 54.0777C72.5819 55.9956 71.4838 59.4075 72.4923 62.518L78.5164 81.0975C80.7682 88.0428 72.8828 93.8268 67.036 89.5184L51.3952 77.9929C48.7767 76.0634 45.2233 76.0634 42.6048 77.9929L26.964 89.5184C21.1172 93.8268 13.2318 88.0428 15.4836 81.0975L21.5077 62.518C22.5162 59.4075 21.4181 55.9956 18.7913 54.0777L3.1007 42.6213C-2.7647 38.3387 0.247286 28.98 7.48582 28.996L26.8497 29.0387C30.0914 29.0458 32.9662 26.9372 33.9612 23.8223L39.9048 5.21639Z" fill="#FF4234"/>
</svg>
