<svg width="510" height="570" viewBox="0 0 510 570" fill="none" xmlns="http://www.w3.org/2000/svg">
<path d="M205.187 154.825C227.326 116.392 282.674 116.392 304.813 154.825L510 510.332L6.29106e-06 512.253L205.187 154.825Z" fill="#004E3D"/>
<path d="M61.3534 512.253C61.3534 529.234 47.619 543 30.6767 543C13.7344 543 6.29106e-06 529.234 6.29106e-06 512.253C13.4211 500.724 17.2556 502.645 30.6767 481.507C47.619 481.507 61.3534 495.273 61.3534 512.253Z" fill="#004E3D"/>
<path d="M124.624 510.332C124.624 528.374 110.46 543 92.9887 543C75.517 543 61.3534 528.374 61.3534 510.332C61.3534 492.29 75.517 477.664 92.9887 477.664C110.46 477.664 124.624 492.29 124.624 510.332Z" fill="#004E3D"/>
<path d="M189.812 510.332C189.812 528.374 175.219 543 157.218 543C139.217 543 124.624 528.374 124.624 510.332C124.624 492.29 139.217 477.664 157.218 477.664C175.219 477.664 189.812 492.29 189.812 510.332Z" fill="#004E3D"/>
<path d="M253.083 510.332C253.083 528.374 238.919 543 221.447 543C203.976 543 189.812 528.374 189.812 510.332C189.812 492.29 203.976 477.664 221.447 477.664C238.919 477.664 253.083 492.29 253.083 510.332Z" fill="#004E3D"/>
<path d="M318.271 510.332C318.271 528.374 303.678 543 285.677 543C267.676 543 253.083 528.374 253.083 510.332C253.083 492.29 267.676 477.664 285.677 477.664C303.678 477.664 318.271 492.29 318.271 510.332Z" fill="#004E3D"/>
<path d="M381.541 510.332C381.541 528.374 367.378 543 349.906 543C332.434 543 318.271 528.374 318.271 510.332C318.271 492.29 332.434 477.664 349.906 477.664C367.378 477.664 381.541 492.29 381.541 510.332Z" fill="#004E3D"/>
<path d="M446.729 510.332C446.729 528.374 432.137 543 414.135 543C396.134 543 381.541 528.374 381.541 510.332C381.541 492.29 396.134 477.664 414.135 477.664C432.137 477.664 446.729 492.29 446.729 510.332Z" fill="#004E3D"/>
<path d="M510 510.332C510 528.374 495.836 543 478.365 543C460.893 543 446.729 528.374 446.729 510.332C446.729 492.29 460.893 477.664 478.365 477.664C491.786 483.429 492.744 497.841 510 510.332Z" fill="#004E3D"/>
<path d="M213.794 77.1936C232.33 44.9355 278.67 44.9355 297.206 77.1935L469 375.581L42 377.194L213.794 77.1936Z" fill="#006953"/>
<path d="M93.3684 377.194C93.3684 391.446 81.8692 403 67.6842 403C53.4992 403 42 391.446 42 377.194C53.2368 367.516 56.4474 369.129 67.6842 351.387C81.8692 351.387 93.3684 362.941 93.3684 377.194Z" fill="#006953"/>
<path d="M146.342 375.581C146.342 390.724 134.484 403 119.855 403C105.227 403 93.3684 390.724 93.3684 375.581C93.3684 360.437 105.227 348.161 119.855 348.161C134.484 348.161 146.342 360.437 146.342 375.581Z" fill="#006953"/>
<path d="M200.921 375.581C200.921 390.724 188.703 403 173.632 403C158.56 403 146.342 390.724 146.342 375.581C146.342 360.437 158.56 348.161 173.632 348.161C188.703 348.161 200.921 360.437 200.921 375.581Z" fill="#006953"/>
<path d="M253.895 375.581C253.895 390.724 242.036 403 227.408 403C212.78 403 200.921 390.724 200.921 375.581C200.921 360.437 212.78 348.161 227.408 348.161C242.036 348.161 253.895 360.437 253.895 375.581Z" fill="#006953"/>
<path d="M308.474 375.581C308.474 390.724 296.256 403 281.184 403C266.113 403 253.895 390.724 253.895 375.581C253.895 360.437 266.113 348.161 281.184 348.161C296.256 348.161 308.474 360.437 308.474 375.581Z" fill="#006953"/>
<path d="M361.447 375.581C361.447 390.724 349.589 403 334.961 403C320.332 403 308.474 390.724 308.474 375.581C308.474 360.437 320.332 348.161 334.961 348.161C349.589 348.161 361.447 360.437 361.447 375.581Z" fill="#006953"/>
<path d="M416.026 375.581C416.026 390.724 403.808 403 388.737 403C373.665 403 361.447 390.724 361.447 375.581C361.447 360.437 373.665 348.161 388.737 348.161C403.808 348.161 416.026 360.437 416.026 375.581Z" fill="#006953"/>
<path d="M469 375.581C469 390.724 457.141 403 442.513 403C427.885 403 416.026 390.724 416.026 375.581C416.026 360.437 427.885 348.161 442.513 348.161C453.75 353 454.553 365.097 469 375.581Z" fill="#006953"/>
<path d="M227.273 16.3134C239.818 -5.43778 271.182 -5.43779 283.727 16.3134L400 217.512L111 218.599L227.273 16.3134Z" fill="#09BD97"/>
<path d="M145.767 218.599C145.767 228.209 137.984 236 128.383 236C118.783 236 111 228.209 111 218.599C118.605 212.074 120.778 213.161 128.383 201.198C137.984 201.198 145.767 208.989 145.767 218.599Z" fill="#09BD97"/>
<path d="M181.62 217.512C181.62 227.722 173.594 236 163.694 236C153.793 236 145.767 227.722 145.767 217.512C145.767 207.301 153.793 199.023 163.694 199.023C173.594 199.023 181.62 207.301 181.62 217.512Z" fill="#09BD97"/>
<path d="M218.56 217.512C218.56 227.722 210.291 236 200.09 236C189.89 236 181.62 227.722 181.62 217.512C181.62 207.301 189.89 199.023 200.09 199.023C210.291 199.023 218.56 207.301 218.56 217.512Z" fill="#09BD97"/>
<path d="M254.414 217.512C254.414 227.722 246.387 236 236.487 236C226.586 236 218.56 227.722 218.56 217.512C218.56 207.301 226.586 199.023 236.487 199.023C246.387 199.023 254.414 207.301 254.414 217.512Z" fill="#09BD97"/>
<path d="M291.353 217.512C291.353 227.722 283.084 236 272.883 236C262.683 236 254.414 227.722 254.414 217.512C254.414 207.301 262.683 199.023 272.883 199.023C283.084 199.023 291.353 207.301 291.353 217.512Z" fill="#09BD97"/>
<path d="M327.207 217.512C327.207 227.722 319.181 236 309.28 236C299.379 236 291.353 227.722 291.353 217.512C291.353 207.301 299.379 199.023 309.28 199.023C319.181 199.023 327.207 207.301 327.207 217.512Z" fill="#09BD97"/>
<path d="M364.147 217.512C364.147 227.722 355.877 236 345.677 236C335.476 236 327.207 227.722 327.207 217.512C327.207 207.301 335.476 199.023 345.677 199.023C355.877 199.023 364.147 207.301 364.147 217.512Z" fill="#09BD97"/>
<path d="M400 217.512C400 227.722 391.974 236 382.073 236C372.173 236 364.147 227.722 364.147 217.512C364.147 207.301 372.173 199.023 382.073 199.023C389.679 202.286 390.222 210.442 400 217.512Z" fill="#09BD97"/>
<path d="M260.366 498.953C260.155 498.991 259.944 499.03 259.695 498.857C259.446 498.685 240.917 487.898 240.553 479.904C240.534 478.601 240.86 476.799 243.2 475.284C244.945 474.095 246.672 473.999 248.302 474.574C254.152 476.777 258.372 487.989 260.904 497.113L260.98 497.535C261.057 497.956 260.923 498.416 260.75 498.666C260.75 498.666 260.577 498.915 260.366 498.953ZM246 476.3C245.578 476.376 244.984 476.702 244.389 477.028C243.238 477.891 242.72 478.639 242.74 479.942C242.951 484.696 252.829 492.265 258.698 495.772C255.399 484.827 251.524 477.908 247.803 476.625C247.094 476.318 246.633 476.184 246 476.3Z" fill="white"/>
<path d="M259.407 498.474C259.196 498.512 258.985 498.551 258.985 498.551C258.564 498.627 258.103 498.493 258.026 498.072C257.739 497.688 257.873 497.228 258.046 496.979C258.218 496.73 258.525 496.021 259.254 495.234C262.975 489.33 273.141 473.322 281.696 472.419C283.844 472.246 285.724 472.993 287.335 474.66C290.02 477.439 289.847 480.084 289.31 481.925C286.05 490.359 264.471 497.553 259.407 498.474ZM281.408 474.432C274.023 475.775 264.375 491.035 261.172 496.192C268.02 494.293 284.918 487.734 287.392 480.967C287.929 479.126 287.623 477.44 286.011 475.772C284.937 474.661 283.518 474.048 282.041 474.317C281.83 474.355 281.619 474.393 281.408 474.432Z" fill="white"/>
<path d="M270.609 497.743C266.389 498.51 262.476 498.569 259.12 498.09C258.909 498.129 258.659 497.956 258.372 497.573C258.122 497.401 258.046 496.979 258.218 496.73C260.501 486.512 259.101 475.223 254.344 465.851C254.056 465.467 254.363 464.758 254.747 464.47C255.131 464.183 255.84 464.489 256.128 464.873C260.885 474.245 262.496 485.496 260.251 495.924C268.48 496.823 279.087 494.022 289.54 487.982C289.924 487.694 290.595 487.79 290.921 488.384C291.209 488.767 291.113 489.438 290.519 489.764C283.882 494.021 276.939 496.591 270.609 497.743Z" fill="white"/>
<path d="M288.88 501.565L231.233 490.203L219.85 547.815L277.496 559.177L288.88 501.565Z" fill="#FF4234"/>
<path d="M248.877 554.409C248.666 554.448 248.666 554.448 248.455 554.486C247.994 554.352 247.457 553.796 247.591 553.336L258.909 495.733C259.043 495.273 259.599 494.736 260.06 494.87C260.52 495.004 261.057 495.56 260.923 496.02L249.605 553.623C249.471 554.083 249.088 554.371 248.877 554.409Z" fill="white"/>
<path d="M283.229 531.169C283.019 531.207 283.019 531.207 282.808 531.246L225.17 519.95C224.709 519.816 224.172 519.26 224.306 518.8C224.441 518.34 224.997 517.803 225.457 517.937L283.095 529.233C283.556 529.367 284.093 529.923 283.958 530.383C284.035 530.805 283.651 531.092 283.229 531.169Z" fill="white"/>
<path d="M368.961 498.21C369.172 498.249 369.383 498.287 369.632 498.115C369.882 497.942 388.41 487.155 388.775 479.162C388.794 477.858 388.468 476.056 386.128 474.542C384.382 473.353 382.656 473.257 381.026 473.831C375.175 476.034 370.956 487.247 368.424 496.37L368.347 496.792C368.271 497.214 368.405 497.674 368.578 497.923C368.578 497.923 368.75 498.172 368.961 498.21ZM383.327 475.557C383.749 475.634 384.344 475.96 384.938 476.286C386.089 477.148 386.607 477.896 386.588 479.2C386.377 483.953 376.499 491.522 370.63 495.029C373.929 484.085 377.803 477.166 381.524 475.882C382.234 475.576 382.694 475.442 383.327 475.557Z" fill="white"/>
<path d="M369.92 497.731C370.131 497.77 370.342 497.808 370.342 497.808C370.764 497.885 371.224 497.751 371.301 497.329C371.589 496.946 371.455 496.486 371.282 496.236C371.109 495.987 370.802 495.278 370.074 494.492C366.352 488.587 356.186 472.579 347.632 471.676C345.484 471.503 343.604 472.25 341.993 473.918C339.307 476.696 339.48 479.342 340.017 481.182C343.278 489.617 364.856 496.81 369.92 497.731ZM347.92 473.689C355.304 475.033 364.952 490.293 368.156 495.45C361.308 493.55 344.41 486.991 341.935 480.224C341.398 478.384 341.705 476.697 343.316 475.03C344.39 473.918 345.81 473.305 347.287 473.574C347.498 473.612 347.709 473.651 347.92 473.689Z" fill="white"/>
<path d="M358.719 497C362.938 497.768 366.851 497.826 370.208 497.348C370.419 497.386 370.668 497.214 370.956 496.83C371.205 496.658 371.282 496.236 371.109 495.987C368.827 485.77 370.227 474.48 374.984 465.108C375.271 464.725 374.964 464.015 374.581 463.728C374.197 463.44 373.487 463.747 373.2 464.13C368.443 473.502 366.832 484.753 369.076 495.182C360.848 496.081 350.241 493.279 339.787 487.239C339.404 486.951 338.732 487.047 338.406 487.641C338.118 488.025 338.214 488.695 338.809 489.021C345.446 493.278 352.389 495.849 358.719 497Z" fill="white"/>
<path d="M340.448 500.823L398.094 489.46L409.478 547.073L351.831 558.435L340.448 500.823Z" fill="#C5CBE3"/>
<path d="M380.451 553.667C380.662 553.705 380.662 553.705 380.873 553.743C381.333 553.609 381.87 553.054 381.736 552.594L370.419 494.99C370.285 494.53 369.728 493.993 369.268 494.127C368.808 494.261 368.271 494.817 368.405 495.277L379.722 552.881C379.856 553.341 380.24 553.628 380.451 553.667Z" fill="white"/>
<path d="M346.098 530.426C346.309 530.465 346.309 530.465 346.52 530.503L404.158 519.207C404.618 519.073 405.156 518.517 405.021 518.057C404.887 517.597 404.331 517.06 403.87 517.194L346.232 528.49C345.772 528.624 345.235 529.18 345.369 529.64C345.293 530.062 345.676 530.35 346.098 530.426Z" fill="white"/>
<path d="M126.961 499.21C127.172 499.249 127.383 499.287 127.632 499.115C127.882 498.942 146.41 488.155 146.775 480.162C146.794 478.858 146.468 477.056 144.128 475.542C142.382 474.353 140.656 474.257 139.026 474.831C133.175 477.034 128.956 488.247 126.424 497.37L126.347 497.792C126.271 498.214 126.405 498.674 126.578 498.923C126.578 498.923 126.75 499.172 126.961 499.21ZM141.327 476.557C141.749 476.634 142.344 476.96 142.938 477.286C144.089 478.148 144.607 478.896 144.588 480.2C144.377 484.953 134.499 492.522 128.63 496.029C131.929 485.085 135.803 478.166 139.524 476.882C140.234 476.576 140.694 476.442 141.327 476.557Z" fill="#FF4234"/>
<path d="M127.92 498.731C128.131 498.77 128.342 498.808 128.342 498.808C128.764 498.885 129.224 498.751 129.301 498.329C129.589 497.946 129.455 497.486 129.282 497.236C129.109 496.987 128.802 496.278 128.074 495.492C124.352 489.587 114.186 473.579 105.632 472.676C103.484 472.503 101.604 473.25 99.9928 474.918C97.3075 477.696 97.4801 480.342 98.0172 482.182C101.278 490.617 122.856 497.81 127.92 498.731ZM105.92 474.689C113.304 476.033 122.952 491.293 126.156 496.45C119.308 494.55 102.41 487.991 99.9353 481.224C99.3982 479.384 99.7051 477.697 101.316 476.03C102.39 474.918 103.81 474.305 105.287 474.574C105.498 474.612 105.709 474.651 105.92 474.689Z" fill="#FF4234"/>
<path d="M116.719 498C120.938 498.768 124.851 498.826 128.208 498.348C128.419 498.386 128.668 498.214 128.956 497.83C129.205 497.658 129.282 497.236 129.109 496.987C126.827 486.77 128.227 475.48 132.984 466.108C133.271 465.725 132.964 465.015 132.581 464.728C132.197 464.44 131.487 464.747 131.2 465.13C126.443 474.502 124.832 485.753 127.076 496.182C118.848 497.081 108.241 494.279 97.7872 488.239C97.4035 487.951 96.7322 488.047 96.4062 488.641C96.1184 489.025 96.2143 489.695 96.809 490.021C103.446 494.278 110.389 496.849 116.719 498Z" fill="#FF4234"/>
<path d="M98.4476 501.823L156.094 490.46L167.478 548.073L109.831 559.435L98.4476 501.823Z" fill="white"/>
<path d="M138.451 554.667C138.662 554.705 138.662 554.705 138.873 554.743C139.333 554.609 139.87 554.054 139.736 553.594L128.419 495.99C128.285 495.53 127.728 494.993 127.268 495.127C126.808 495.261 126.271 495.817 126.405 496.277L137.722 553.881C137.856 554.341 138.24 554.628 138.451 554.667Z" fill="#FF4234"/>
<path d="M104.098 531.426C104.309 531.465 104.309 531.465 104.52 531.503L162.158 520.207C162.618 520.073 163.156 519.517 163.021 519.057C162.887 518.597 162.331 518.06 161.87 518.194L104.232 529.49C103.772 529.624 103.235 530.18 103.369 530.64C103.293 531.062 103.676 531.35 104.098 531.426Z" fill="#FF4234"/>
<path d="M311.826 141.865C314.574 151.702 308.927 161.726 299.117 164.659C289.274 167.407 279.245 161.766 276.312 151.963C273.565 142.127 279.212 132.103 289.021 129.17C298.865 126.422 309.113 132.214 311.826 141.865Z" fill="white"/>
<path d="M311.861 142.051L304.512 137.454L300.332 146.062L292.106 140.859L287.926 149.468L279.701 144.265L276.06 151.627C276.094 151.812 276.094 151.812 276.127 151.997C276.65 153.816 277.324 155.416 278.369 156.949L281.437 150.648L289.662 155.851L293.842 147.243L302.068 152.446L306.248 143.838L312.501 147.677C312.535 145.756 312.383 143.87 311.861 142.051Z" fill="#FF4234"/>
<path d="M72.4477 369.593C70.825 378.787 62.2095 384.818 52.9643 383.359C43.7646 381.734 37.727 373.121 39.1835 363.882C40.8062 354.689 49.4218 348.658 58.6669 350.117C67.8666 351.741 74.0249 360.566 72.4477 369.593Z" fill="white"/>
<path d="M72.4026 369.759L68.1617 363.066L61.3142 368.51L56.5903 360.971L49.7428 366.415L45.0189 358.875L39.1086 363.505C39.0632 363.671 39.0632 363.671 39.0178 363.837C38.7296 365.543 38.653 367.128 38.9087 368.804L43.9272 364.823L48.6511 372.362L55.4986 366.919L60.2224 374.458L67.07 369.014L70.7073 374.65C71.494 373.08 72.1144 371.465 72.4026 369.759Z" fill="#FF4234"/>
<path d="M444.793 455.753C449.863 463.91 447.405 474.446 439.321 479.678C431.158 484.751 420.618 482.299 415.389 474.221C410.319 466.064 412.777 455.528 420.861 450.297C429.024 445.224 439.801 447.754 444.793 455.753Z" fill="white"/>
<path d="M444.872 455.911L437.027 453.696L435.52 462.569L426.724 460.037L425.217 468.91L416.421 466.379L415.072 473.984C415.152 474.142 415.152 474.142 415.231 474.301C416.182 475.805 417.212 477.072 418.559 478.181L419.669 471.685L428.465 474.216L429.972 465.343L438.768 467.875L440.275 459.002L446.932 460.822C446.457 459.079 445.823 457.416 444.872 455.911Z" fill="#FF4234"/>
<path d="M36.5 441.5C151 462 354.5 472.5 459.5 415" stroke="white" stroke-width="2" stroke-linecap="round" stroke-linejoin="round"/>
<path d="M82 304.5C118.5 329 326 384 470 375.5" stroke="white" stroke-width="2" stroke-linecap="round" stroke-linejoin="round"/>
<path d="M110 252C232.425 224.558 290.664 203.406 371 150" stroke="white" stroke-width="2" stroke-linecap="round" stroke-linejoin="round"/>
<path d="M183 85C234.877 109.335 337.5 103.5 337.5 103.5" stroke="white" stroke-width="2" stroke-linecap="round" stroke-linejoin="round"/>
<path d="M421.889 278.714C421.972 284.377 417.472 288.792 411.805 288.877C406.139 288.961 401.722 284.465 401.639 278.802C401.556 273.14 406.056 268.725 411.722 268.64C417.389 268.556 421.839 273.235 421.889 278.714Z" fill="white"/>
<path d="M286.889 47.7144C286.972 53.3772 282.472 57.792 276.805 57.8766C271.139 57.9612 266.722 53.4652 266.639 47.8024C266.556 42.1395 271.056 37.7248 276.722 37.6402C282.389 37.5556 286.839 42.2347 286.889 47.7144Z" fill="white"/>
<path d="M130.889 289.714C130.972 295.377 126.472 299.792 120.805 299.877C115.139 299.961 110.722 295.465 110.639 289.802C110.556 284.14 115.056 279.725 120.722 279.64C126.389 279.556 130.839 284.235 130.889 289.714Z" fill="white"/>
<path d="M289.01 426.415C289.129 434.541 282.672 440.875 274.541 440.997C266.41 441.118 260.072 434.667 259.953 426.541C259.833 418.415 266.29 412.08 274.422 411.959C282.553 411.837 289.153 418.241 289.01 426.415Z" fill="white"/>
<path d="M283.306 126.642L285.032 127.514C286.6 128.307 287.155 130.27 286.233 131.766L285.031 133.715C283.595 136.047 280.003 135.06 279.959 132.322C279.951 131.815 279.801 131.318 279.529 130.891C277.922 128.369 280.638 125.293 283.306 126.642Z" fill="#FF4234"/>
<path d="M292.894 130.339L291.168 129.467C289.6 128.674 289.046 126.711 289.967 125.215L291.169 123.266C292.606 120.934 296.197 121.921 296.241 124.659C296.249 125.166 296.4 125.663 296.672 126.09C298.278 128.612 295.562 131.688 292.894 130.339Z" fill="#FF4234"/>
<circle cx="288.191" cy="128.775" r="2.68538" transform="rotate(-17.7505 288.191 128.775)" fill="#FF4234"/>
<path d="M416.205 447.762L418.046 448.352C419.719 448.888 420.576 450.74 419.901 452.362L419.021 454.476C417.968 457.005 414.267 456.595 413.792 453.898C413.705 453.399 413.478 452.931 413.142 452.552C411.159 450.314 413.358 446.85 416.205 447.762Z" fill="#FF4234"/>
<path d="M426.254 449.906L424.413 449.316C422.74 448.78 421.884 446.928 422.559 445.306L423.439 443.192C424.491 440.663 428.193 441.073 428.667 443.77C428.755 444.269 428.981 444.737 429.317 445.116C431.3 447.354 429.101 450.818 426.254 449.906Z" fill="#FF4234"/>
<circle cx="421.364" cy="449.1" r="2.68538" transform="rotate(-26.7971 421.364 449.1)" fill="#FF4234"/>
<path d="M53.6607 346.075L54.5559 347.129C55.643 348.408 55.403 350.344 54.0363 351.319L52.6596 352.302C50.7285 353.68 48.1931 351.685 49.0786 349.484C49.2424 349.077 49.2895 348.629 49.2159 348.197C48.7813 345.643 51.9839 344.101 53.6607 346.075Z" fill="#FF4234"/>
<path d="M60.072 352.25L59.1768 351.197C58.0897 349.917 58.3296 347.981 59.6963 347.006L61.0731 346.023C63.0042 344.645 65.5396 346.64 64.6541 348.841C64.4903 349.248 64.4431 349.696 64.5168 350.129C64.9514 352.682 61.7488 354.224 60.072 352.25Z" fill="#FF4234"/>
<circle cx="56.8434" cy="349.42" r="2.32633" transform="rotate(5.08721 56.8434 349.42)" fill="#FF4234"/>
<path d="M354.916 235C354.916 252.19 336.853 266 336.853 266C336.853 266 318.643 252.19 318.643 235C318.643 217.81 336.706 204 336.706 204C336.706 204 354.916 217.957 354.916 235Z" fill="#EDEF83"/>
<path d="M331.312 256.7L352.75 235" stroke="#42485F" stroke-width="2" stroke-miterlimit="10" stroke-linecap="round" stroke-linejoin="round"/>
<path d="M324.312 247.843L349.688 222.6" stroke="#42485F" stroke-width="2" stroke-miterlimit="10" stroke-linecap="round" stroke-linejoin="round"/>
<path d="M320.375 235.886L343.125 213.743" stroke="#42485F" stroke-width="2" stroke-miterlimit="10" stroke-linecap="round" stroke-linejoin="round"/>
<path d="M251.916 99C251.916 116.19 233.853 130 233.853 130C233.853 130 215.643 116.19 215.643 99C215.643 81.8104 233.706 68 233.706 68C233.706 68 251.916 81.9573 251.916 99Z" fill="#EDEF83"/>
<path d="M228.312 120.7L249.75 99" stroke="#42485F" stroke-width="2" stroke-miterlimit="10" stroke-linecap="round" stroke-linejoin="round"/>
<path d="M221.312 111.843L246.688 86.6001" stroke="#42485F" stroke-width="2" stroke-miterlimit="10" stroke-linecap="round" stroke-linejoin="round"/>
<path d="M217.375 99.8855L240.125 77.7427" stroke="#42485F" stroke-width="2" stroke-miterlimit="10" stroke-linecap="round" stroke-linejoin="round"/>
</svg>
